<?xml version="1.0" standalone="no"?>
<!DOCTYPE svg PUBLIC "-//W3C//DTD SVG 20010904//EN"
 "http://www.w3.org/TR/2001/REC-SVG-20010904/DTD/svg10.dtd">
<svg version="1.0" xmlns="http://www.w3.org/2000/svg"
 width="260.000000pt" height="260.000000pt" viewBox="0 0 260.000000 260.000000"
 preserveAspectRatio="xMidYMid meet">
<metadata>
Created by potrace 1.11, written by Peter Selinger 2001-2013
</metadata>
<g transform="translate(0.000000,260.000000) scale(0.100000,-0.100000)"
fill="#000000" stroke="none">
<path d="M1328 2584 c-22 -12 -21 -12 14 -10 21 2 35 -1 32 -6 -3 -5 -13 -7
-21 -4 -11 4 -13 2 -9 -9 5 -13 2 -14 -17 -4 -17 9 -20 9 -10 -1 12 -13 6 -43
-7 -35 -5 3 -11 1 -15 -5 -3 -5 -2 -10 4 -10 6 0 8 -7 5 -15 -4 -8 -11 -12
-18 -8 -6 4 -5 -1 3 -10 8 -11 9 -17 3 -17 -6 0 -9 -7 -6 -15 4 -9 0 -15 -7
-15 -9 0 -10 -3 -4 -8 17 -12 17 -35 1 -29 -11 4 -13 1 -9 -10 5 -12 3 -14 -7
-8 -8 5 -11 4 -7 -2 4 -6 0 -16 -8 -23 -8 -7 -15 -17 -15 -23 0 -6 7 -2 15 9
8 10 15 14 15 7 0 -6 -7 -19 -16 -27 -10 -10 -11 -16 -3 -16 8 0 9 -4 0 -13
-7 -10 -7 -17 0 -24 8 -8 7 -13 -2 -18 -8 -6 -10 -4 -4 5 5 8 4 11 -1 7 -11
-6 -11 -47 0 -65 4 -7 3 -12 -3 -12 -6 0 -8 -17 -6 -37 3 -36 2 -37 -12 -18
-16 21 -16 17 4 -32 6 -15 4 -16 -9 -5 -13 10 -18 10 -24 1 -5 -8 -3 -9 6 -4
10 6 12 4 7 -8 -4 -12 -2 -14 11 -10 9 3 5 -4 -11 -16 -25 -21 -29 -50 -5 -35
6 4 8 2 4 -4 -3 -5 -3 -12 1 -15 5 -2 3 -2 -4 -1 -14 3 -26 -23 -13 -31 10 -6
8 -24 -4 -44 -5 -8 -3 -16 5 -22 12 -7 11 -9 -1 -9 -13 0 -13 -1 0 -10 13 -9
13 -10 0 -10 -13 0 -13 -1 0 -10 13 -9 13 -11 0 -20 -12 -8 -13 -11 -1 -19 9
-6 10 -11 2 -15 -6 -4 -11 -13 -11 -19 0 -7 4 -6 10 3 5 8 10 10 10 5 0 -6 -5
-16 -12 -23 -9 -9 -9 -12 1 -12 9 0 10 -4 4 -12 -13 -17 -13 -49 0 -41 5 3 7
0 5 -8 -3 -8 2 -23 11 -34 9 -12 10 -15 1 -7 -8 6 -19 12 -24 12 -6 0 -5 -4 3
-9 8 -6 10 -14 5 -22 -15 -25 -14 -42 1 -29 11 9 17 4 30 -27 10 -24 12 -39 5
-41 -5 -2 -10 -8 -10 -13 0 -6 5 -7 11 -3 8 5 10 -3 7 -25 -3 -18 -1 -34 4
-37 5 -3 5 -10 2 -16 -4 -6 0 -14 7 -19 12 -7 12 -12 1 -30 -8 -11 -9 -18 -4
-15 6 3 12 3 15 -1 2 -5 2 -2 0 5 -1 7 2 10 8 6 6 -3 9 -17 7 -29 -4 -16 -1
-22 9 -18 9 4 13 -4 13 -27 0 -18 4 -29 10 -25 6 3 10 -3 10 -15 0 -13 4 -19
12 -14 7 4 8 3 4 -4 -4 -6 2 -20 13 -31 12 -12 16 -22 9 -29 -6 -6 -5 -12 3
-17 8 -6 10 -4 4 5 -5 9 -4 11 3 6 7 -4 12 -15 12 -24 0 -15 2 -15 11 -2 9 12
10 11 6 -7 -3 -14 0 -21 7 -20 6 1 11 -8 10 -19 0 -14 4 -20 13 -17 7 3 13 0
13 -5 0 -6 10 -14 21 -17 17 -6 19 -9 8 -16 -11 -7 -11 -9 -1 -9 7 0 10 -5 6
-12 -4 -6 -3 -8 4 -4 6 3 13 2 17 -4 4 -6 11 -7 17 -4 7 4 8 2 4 -4 -4 -7 -2
-12 4 -12 6 0 8 -4 5 -10 -3 -5 1 -10 10 -10 10 0 13 -5 9 -12 -4 -6 -3 -8 3
-5 6 4 19 -1 29 -9 10 -9 12 -12 4 -8 -13 7 -13 6 -1 -10 18 -22 57 -44 46
-25 -6 8 -4 10 4 5 7 -5 10 -15 6 -23 -5 -14 -3 -14 12 -2 11 9 14 10 9 2 -4
-8 -2 -13 4 -13 7 0 10 -6 7 -13 -4 -10 2 -13 19 -9 18 3 26 -1 33 -19 5 -13
10 -17 11 -9 0 13 2 13 9 0 6 -8 7 -18 4 -23 -3 -5 4 -4 16 2 19 11 25 8 22
-12 0 -4 2 -6 6 -6 18 3 32 -2 45 -14 27 -25 52 -42 44 -29 -4 7 -2 12 4 12 7
0 14 -9 17 -20 3 -11 9 -18 12 -15 4 2 8 -3 8 -11 0 -9 -6 -13 -15 -9 -12 4
-13 3 -2 -10 10 -12 10 -15 -4 -15 -10 0 -15 -4 -12 -9 3 -5 -1 -12 -10 -15
-9 -4 -14 -13 -10 -21 3 -9 0 -15 -10 -15 -9 0 -12 -5 -8 -12 5 -7 2 -9 -9 -5
-12 4 -14 2 -10 -10 4 -11 2 -14 -5 -9 -8 5 -10 2 -6 -8 3 -9 1 -16 -5 -16 -6
0 -11 -5 -11 -11 0 -5 5 -7 12 -3 7 5 8 3 3 -5 -4 -7 -16 -10 -27 -8 -16 5
-17 3 -6 -11 10 -12 10 -14 0 -8 -8 5 -16 -2 -22 -19 -6 -16 -14 -23 -22 -19
-6 4 -8 3 -5 -3 8 -12 -17 -36 -26 -26 -4 3 -7 -1 -7 -11 0 -9 -5 -14 -10 -11
-6 4 -10 3 -9 -2 3 -19 -2 -33 -12 -33 -5 0 -7 5 -3 12 4 7 3 8 -5 4 -6 -4 -9
-11 -6 -16 3 -4 -2 -11 -11 -14 -8 -3 -13 -10 -9 -15 3 -6 -3 -8 -15 -6 -11 2
-23 -1 -26 -7 -5 -7 -2 -8 7 -4 8 4 6 1 -3 -7 -10 -8 -14 -18 -10 -22 4 -5 -1
-5 -10 -2 -10 4 -18 2 -18 -3 0 -5 -14 -17 -30 -25 -17 -9 -28 -20 -25 -24 2
-5 -4 -11 -15 -14 -10 -3 -21 0 -24 7 -2 6 -5 3 -5 -8 -1 -13 -6 -16 -17 -12
-15 6 -15 4 -3 -10 13 -16 12 -16 -9 -5 -18 9 -22 9 -20 -1 2 -8 -8 -13 -29
-13 -17 0 -31 -4 -30 -10 1 -5 -8 -11 -20 -13 -13 -2 -23 -8 -23 -13 0 -6 5
-7 12 -3 7 4 8 3 4 -5 -4 -6 -13 -8 -19 -4 -16 10 -47 11 -42 2 3 -4 -2 -10
-11 -13 -10 -4 -13 -2 -8 7 5 8 2 7 -9 -2 -14 -11 -17 -11 -17 0 -1 10 -4 9
-11 -3 -7 -14 -15 -15 -34 -8 -16 6 -27 6 -31 -2 -4 -6 -3 -8 3 -5 6 4 13 1
16 -6 3 -8 -4 -12 -22 -11 -14 1 -32 -3 -38 -9 -10 -7 -13 -4 -13 9 0 17 -1
17 -15 -2 -14 -19 -14 -19 -15 1 0 15 -2 17 -9 7 -4 -8 -12 -14 -17 -15 -5 -1
-8 -6 -6 -10 1 -5 -2 -6 -8 -2 -6 3 -8 10 -6 14 3 4 -1 8 -9 8 -8 0 -12 -4 -9
-9 8 -12 -29 -6 -38 7 -4 5 -10 2 -14 -8 -3 -9 -10 -17 -16 -17 -5 0 -7 4 -4
9 7 10 -19 23 -28 13 -11 -10 -36 -11 -36 -1 0 5 -5 9 -11 9 -5 0 -7 -5 -4
-11 4 -6 -2 -5 -13 2 -17 11 -23 10 -38 -2 -15 -13 -16 -12 -11 11 4 14 4 19
1 12 -3 -6 -11 -9 -16 -6 -6 4 -8 2 -5 -4 5 -6 0 -8 -12 -5 -13 3 -18 11 -14
21 4 14 3 14 -5 3 -6 -8 -21 -16 -34 -18 -17 -2 -19 -1 -8 6 8 5 18 7 24 4 5
-3 6 -2 3 4 -3 5 -20 8 -38 5 -22 -3 -30 -1 -25 7 4 6 3 11 -3 11 -5 0 -12 -6
-14 -12 -4 -10 -8 -10 -15 0 -12 17 -22 17 -33 0 -7 -10 -9 -11 -9 0 0 7 -8
12 -18 11 -9 -1 -24 -1 -32 0 -13 1 -13 2 0 11 8 5 10 10 5 10 -6 0 -16 -5
-23 -12 -9 -9 -12 -8 -12 6 0 9 -5 14 -10 11 -6 -3 -10 -2 -10 3 0 6 -7 13
-16 16 -8 3 -12 2 -9 -4 3 -6 1 -10 -4 -10 -6 0 -11 6 -11 13 0 8 -4 7 -10 -3
-7 -11 -10 -11 -10 -2 0 7 -4 11 -9 7 -5 -3 -13 -1 -16 5 -4 7 -11 8 -18 1
-12 -9 -41 11 -31 22 3 2 -6 3 -20 2 -16 -2 -23 1 -20 9 5 13 -30 15 -42 3 -4
-4 -12 -7 -18 -7 -6 0 -4 5 4 10 13 9 13 10 0 11 -8 1 -21 1 -29 0 -7 -2 -10
2 -6 8 3 6 1 11 -5 11 -6 0 -8 5 -4 12 5 9 2 9 -9 -1 -10 -8 -17 -9 -17 -3 0
6 5 14 11 18 8 4 7 9 -2 15 -10 6 -5 9 16 9 23 0 26 3 15 10 -13 8 -13 11 -1
22 12 11 13 10 7 -2 -4 -8 6 1 22 20 16 19 28 40 25 47 -3 7 0 13 6 13 6 0 11
-5 11 -12 0 -6 3 -8 6 -5 4 4 1 13 -6 22 -11 13 -10 14 3 10 10 -5 15 -1 14
12 -1 10 3 17 9 16 7 -1 11 5 10 14 0 9 5 18 13 21 9 3 11 0 6 -9 -5 -8 -4
-11 1 -6 9 9 10 13 13 43 0 8 5 13 10 10 5 -3 11 4 14 15 4 14 10 18 18 13 9
-5 10 -2 5 11 -5 15 -4 16 8 6 12 -10 14 -9 9 8 -5 21 27 46 43 33 5 -4 2 1
-5 11 -12 15 -12 17 2 12 8 -4 18 -1 23 6 4 7 3 10 -3 6 -5 -3 -10 0 -10 8 0
7 8 12 19 10 12 -3 16 0 12 7 -5 8 -1 9 11 4 14 -5 15 -4 7 7 -9 10 -7 16 8
27 10 7 17 17 14 21 -2 4 6 5 18 1 17 -4 20 -2 14 13 -6 16 -4 16 11 4 10 -7
15 -10 11 -5 -13 15 11 45 31 41 14 -3 18 1 14 11 -3 8 1 14 11 14 9 0 16 4
16 10 0 5 7 6 17 3 11 -4 14 -3 9 5 -4 7 -2 12 4 12 6 0 8 5 4 13 -6 9 -4 9 8
-1 13 -10 18 -10 24 -1 4 8 3 9 -4 5 -7 -4 -12 -2 -12 5 0 6 8 9 19 6 15 -3
18 -1 14 11 -4 10 -2 13 5 8 7 -4 12 -2 12 4 0 8 6 7 21 -1 13 -6 19 -7 15 -1
-3 6 0 13 6 15 9 4 9 6 -2 6 -10 1 -9 5 6 15 11 8 33 13 47 12 23 -3 25 -1 15
12 -10 13 -10 14 0 8 6 -4 12 -2 12 3 0 6 5 11 11 11 5 0 8 -4 5 -8 -3 -5 1
-9 9 -9 11 0 12 4 4 13 -14 17 8 29 26 14 11 -9 12 -7 8 12 -3 17 -2 19 5 9 7
-9 16 -11 28 -6 11 5 22 7 27 7 4 -1 7 3 7 8 0 13 -6 13 -33 -1 -19 -9 -20 -8
-5 3 9 7 25 18 35 25 17 12 17 12 -2 6 -18 -6 -19 -5 -5 13 13 17 13 18 -1 7
-8 -7 -25 -10 -37 -6 -15 3 -22 1 -22 -8 0 -12 -2 -12 -9 0 -7 10 -12 11 -27
1 -18 -11 -18 -11 1 -5 14 4 17 3 10 -4 -6 -6 -23 -12 -37 -13 -15 -1 -24 -6
-22 -10 3 -5 10 -5 16 -2 7 4 8 2 4 -4 -4 -7 0 -12 11 -13 11 0 13 -3 5 -6 -7
-3 -19 0 -27 7 -19 16 -67 9 -83 -13 -10 -13 -17 -15 -27 -7 -10 8 -15 8 -21
-1 -4 -8 -3 -9 4 -5 7 4 12 3 12 -2 0 -5 -9 -12 -20 -15 -11 -3 -18 -1 -15 3
3 5 -8 2 -24 -6 -16 -8 -32 -21 -35 -29 -3 -8 -11 -15 -17 -15 -7 0 -22 -8
-33 -18 -15 -12 -17 -13 -8 -1 9 13 9 16 -3 16 -8 0 -13 -2 -10 -5 9 -10 -17
-43 -31 -38 -8 3 -13 0 -11 -7 1 -7 -4 -11 -11 -9 -6 1 -12 -4 -12 -12 0 -8
-9 -18 -20 -21 -11 -3 -20 -11 -20 -17 0 -6 -3 -9 -6 -6 -7 8 -44 -28 -44 -44
0 -6 -3 -9 -6 -5 -8 8 -34 -18 -34 -34 0 -7 -3 -9 -7 -6 -3 4 -13 -3 -21 -14
-12 -17 -16 -18 -24 -8 -8 11 -9 10 -5 -2 6 -19 -29 -62 -43 -54 -6 3 -7 -1
-4 -10 8 -19 -15 -48 -32 -41 -8 3 -11 0 -8 -9 3 -7 -4 -19 -16 -25 -12 -7
-19 -18 -16 -26 3 -8 1 -14 -5 -14 -6 0 -8 -4 -5 -9 4 -5 -6 -8 -21 -6 -24 2
-25 1 -10 -10 16 -12 16 -13 -3 -18 -14 -3 -20 -12 -18 -24 2 -12 -3 -18 -14
-17 -10 1 -16 -2 -13 -6 3 -5 2 -10 -2 -13 -5 -2 -2 -2 6 0 11 3 11 1 1 -12
-7 -8 -17 -12 -22 -9 -6 4 -4 -4 2 -17 7 -13 9 -21 5 -17 -12 12 -47 -12 -41
-28 3 -9 -1 -14 -12 -15 -9 0 -12 -3 -5 -5 8 -4 5 -12 -8 -25 -16 -16 -17 -23
-8 -40 8 -15 8 -19 0 -15 -22 14 -10 -21 14 -42 23 -20 26 -20 32 -6 5 14 8
13 20 -7 8 -13 12 -16 9 -6 -5 15 -3 16 14 7 11 -6 26 -8 33 -4 7 5 6 0 -2
-10 -13 -16 -13 -17 0 -15 7 2 28 -5 46 -14 17 -9 39 -14 47 -11 10 4 16 1 16
-7 0 -10 3 -10 12 -1 16 16 28 15 28 -3 0 -9 6 -12 17 -8 10 4 14 2 10 -4 -4
-5 5 -15 20 -22 24 -11 25 -10 13 4 -11 13 -10 15 3 9 8 -3 18 -12 21 -20 3
-9 10 -13 16 -9 5 3 20 1 32 -5 22 -10 22 -10 4 4 -17 14 -17 15 10 11 16 -2
31 -4 33 -4 2 -1 -1 -7 -7 -14 -8 -10 -6 -13 9 -13 10 0 19 4 19 9 0 4 5 5 10
2 6 -4 7 -12 3 -18 -5 -8 -2 -8 9 1 12 10 20 8 42 -9 23 -18 25 -19 19 -2 -6
17 -6 17 14 0 13 -11 23 -14 27 -8 4 5 16 7 29 5 12 -3 28 -6 35 -6 7 -1 11
-7 8 -14 -3 -8 0 -11 9 -7 8 3 12 10 8 17 -4 6 1 5 10 -3 12 -9 17 -10 17 -2
0 7 5 9 10 6 6 -3 10 -11 10 -16 0 -6 -4 -8 -8 -5 -4 2 -13 2 -19 -2 -7 -4 22
-8 62 -8 49 -1 72 2 68 9 -4 6 -1 7 8 1 18 -11 259 -12 252 -1 -3 5 -12 6 -20
3 -9 -4 -11 -2 -7 6 5 8 2 9 -10 5 -10 -4 -15 -3 -11 3 3 5 20 7 37 3 25 -5
29 -3 23 8 -8 12 -6 12 8 0 9 -7 17 -10 17 -7 0 4 9 2 20 -4 16 -8 18 -8 14 4
-6 15 11 16 34 3 7 -5 12 -3 12 7 0 9 5 17 10 17 6 1 15 3 20 4 6 1 19 3 31 4
13 1 18 5 13 14 -5 7 0 6 11 -3 11 -9 16 -10 11 -2 -5 8 2 12 26 13 18 1 37 1
42 0 5 -1 3 6 -5 15 -13 16 -12 16 8 6 31 -17 40 -15 17 3 -18 15 -18 15 0 8
14 -4 17 -3 12 6 -6 8 -2 11 10 9 11 -2 18 2 17 9 -2 7 4 10 12 7 8 -4 12 -11
8 -18 -4 -6 1 -5 10 3 18 15 23 26 7 16 -5 -3 -10 -2 -10 4 0 5 10 11 23 13
13 2 22 10 21 19 -1 11 5 14 22 11 14 -2 24 0 24 7 0 7 -5 9 -12 5 -7 -4 -8
-3 -4 5 6 9 11 9 21 1 9 -8 15 -3 25 20 10 23 16 28 25 20 9 -8 15 -8 20 0 3
5 1 10 -5 10 -6 0 -8 5 -5 10 4 6 11 8 16 4 6 -3 13 3 16 15 5 19 37 38 57 32
5 -1 3 5 -4 14 -11 13 -10 14 5 9 13 -5 16 -4 11 4 -4 7 -2 12 4 12 6 0 8 6 4
13 -4 6 -4 9 0 5 9 -7 46 27 46 43 0 5 5 7 12 3 8 -5 9 0 6 14 -4 12 -2 20 3
16 5 -3 9 0 9 5 0 6 7 11 16 11 10 0 14 6 11 14 -4 10 0 14 12 11 14 -3 17 2
13 21 -4 20 -1 23 13 17 14 -5 16 -3 10 7 -6 10 -4 12 9 7 14 -6 15 -3 6 13
-9 16 -8 20 6 20 10 0 14 5 10 15 -3 8 -1 15 4 15 6 0 10 6 10 14 0 9 7 13 20
11 17 -3 19 -1 10 15 -8 15 -6 22 10 33 11 7 18 16 15 19 -3 3 13 4 35 2 28
-2 38 1 33 9 -5 9 -3 9 8 0 8 -7 41 -11 81 -9 37 1 65 -1 63 -4 -2 -4 2 -7 10
-7 8 0 12 4 9 8 -5 9 47 6 63 -4 7 -4 16 0 22 10 6 10 11 13 11 8 0 -6 11 -11
25 -11 17 0 21 3 15 11 -10 12 -6 14 44 18 13 1 24 7 23 12 -1 6 6 9 16 8 13
-1 17 4 12 15 -5 13 -2 13 14 -2 20 -18 20 -18 15 7 -2 14 0 29 6 32 6 4 8 11
5 16 -4 5 -1 9 4 9 14 0 14 -13 1 -26 -7 -7 -6 -11 4 -11 8 0 15 3 14 6 -2 20
3 31 12 26 6 -3 10 -2 10 4 0 12 -41 11 -58 -2 -9 -7 -17 -6 -25 2 -9 10 -8
11 8 6 16 -6 17 -5 5 4 -11 8 -18 7 -26 -4 -6 -8 -14 -12 -18 -8 -3 4 -15 7
-26 8 -13 1 -17 -2 -10 -10 6 -7 3 -11 -10 -11 -10 0 -16 5 -14 11 3 5 -2 1
-10 -9 -9 -11 -16 -15 -16 -10 0 6 -11 10 -24 10 -14 0 -22 -4 -20 -8 3 -5 10
-5 16 -2 6 4 8 3 5 -3 -3 -5 -23 -9 -44 -8 -21 1 -41 -4 -45 -9 -5 -7 -8 -4
-8 6 0 9 -4 20 -10 23 -6 4 -7 -1 -3 -11 4 -11 3 -15 -5 -10 -6 3 -14 1 -18
-5 -5 -8 -12 -5 -23 9 -12 17 -19 19 -31 11 -13 -9 -12 -10 3 -5 9 3 17 1 17
-4 0 -13 -16 -13 -41 0 -11 6 -25 7 -32 3 -19 -12 -38 -12 -31 -1 4 6 1 9 -7
6 -8 -3 -20 2 -27 11 -12 15 -13 15 -9 0 3 -9 -1 -16 -8 -16 -8 0 -12 8 -9 20
3 18 2 19 -15 3 -14 -13 -21 -14 -27 -5 -5 8 -3 10 6 4 9 -5 11 -4 6 4 -6 9
-11 9 -21 1 -9 -8 -14 -7 -18 3 -3 8 -18 12 -36 11 -17 -1 -34 2 -37 7 -3 5
-10 6 -16 3 -7 -4 -8 -2 -4 5 6 9 12 9 24 -1 15 -11 15 -11 4 3 -12 16 -56 34
-47 20 2 -4 -2 -8 -9 -8 -8 0 -12 6 -9 12 3 8 -5 11 -22 9 -20 -2 -25 1 -21
12 3 8 2 12 -3 9 -5 -3 -12 -1 -16 5 -3 5 -1 10 6 10 7 0 9 3 6 6 -4 4 -13 1
-22 -6 -10 -8 -15 -9 -15 -1 0 6 -7 11 -15 11 -8 0 -15 5 -15 11 0 5 -6 7 -12
3 -8 -5 -7 0 2 11 12 15 12 17 1 10 -9 -5 -19 -2 -28 10 -7 11 -13 14 -13 8 0
-6 -13 1 -30 15 -16 15 -30 32 -30 39 0 7 -6 12 -12 10 -7 -1 -12 4 -11 10 2
7 0 12 -5 12 -18 -3 -33 2 -28 10 7 10 -27 51 -43 51 -6 0 -10 3 -10 8 3 19
-2 33 -11 27 -6 -3 -10 1 -10 10 0 10 -5 13 -12 9 -9 -5 -8 -2 1 9 12 15 12
17 -2 12 -8 -4 -18 -1 -23 6 -5 8 -3 10 7 5 8 -4 5 0 -5 8 -14 11 -15 16 -6
16 8 0 0 10 -16 23 -17 12 -29 28 -27 35 3 6 0 12 -6 12 -6 0 -11 5 -11 11 0
5 4 7 10 4 6 -3 7 1 4 9 -3 9 -11 16 -18 16 -6 0 -4 5 4 10 12 8 12 10 -5 10
-17 0 -18 2 -5 11 12 8 9 10 -12 6 -19 -3 -25 0 -21 10 3 7 9 10 14 7 9 -5 2
23 -11 41 -4 6 -7 28 -9 50 -1 22 -4 48 -7 59 -5 13 -2 17 7 12 8 -4 5 0 -5 8
-11 9 -16 16 -11 16 4 0 0 10 -11 23 -10 12 -12 16 -4 9 18 -16 27 -15 27 3 0
8 -4 12 -9 9 -5 -3 -6 8 -3 25 5 29 -1 37 -28 32 -5 -1 -6 3 -2 9 3 5 12 10
20 10 16 0 27 27 14 36 -6 3 -13 3 -16 0 -4 -3 -1 -6 6 -6 7 0 9 -4 6 -10 -3
-5 -10 -10 -14 -10 -12 0 -9 34 3 42 8 5 7 8 -1 8 -7 0 -13 5 -13 11 0 5 6 7
13 3 9 -6 9 -4 -1 8 -7 8 -9 24 -5 33 5 14 3 16 -8 10 -11 -7 -12 -6 -2 7 7 8
9 18 5 22 -4 4 1 14 11 21 16 12 16 14 2 29 -14 14 -14 16 -2 16 9 0 18 -6 20
-12 3 -7 4 1 4 17 -1 17 -9 36 -17 43 -13 10 -12 11 4 5 11 -4 17 -2 13 3 -3
6 -2 16 3 24 5 9 5 19 -2 27 -8 10 -7 13 3 13 11 0 11 2 -1 10 -8 5 -10 10 -5
10 6 0 10 20 9 45 0 34 3 45 15 46 12 0 11 3 -4 9 -18 7 -19 8 -2 15 21 9 23
27 1 18 -14 -5 -14 -3 -3 15 7 11 18 18 24 14 5 -3 4 2 -4 11 -12 16 -12 17 5
11 18 -5 18 -4 -1 12 -17 14 -17 16 -2 11 9 -4 17 -2 17 4 0 6 4 7 10 4 6 -3
7 1 3 10 -5 13 -7 14 -14 3 -6 -9 -9 -9 -9 -1 0 6 4 14 9 17 5 3 9 21 9 40 0
39 9 59 23 51 5 -3 6 1 3 9 -4 11 0 16 11 16 9 0 14 4 10 9 -3 6 4 9 15 8 11
-1 20 -6 20 -11 0 -6 5 -5 12 2 7 7 17 12 23 12 6 0 6 -3 -1 -8 -9 -5 -8 -11
2 -20 9 -8 14 -9 14 -2 0 6 5 8 10 5 6 -4 8 -11 5 -16 -4 -5 -1 -9 4 -9 6 0
11 6 11 13 0 8 4 7 10 -3 8 -13 10 -13 10 -1 0 12 3 12 12 3 14 -14 32 -16 23
-2 -3 6 1 7 9 4 9 -3 16 -16 17 -28 0 -11 3 -16 5 -9 7 17 34 4 34 -16 0 -13
2 -14 9 -2 7 11 13 12 23 4 7 -6 21 -9 31 -7 13 2 17 -2 13 -13 -6 -14 -4 -14
11 -2 11 9 14 10 9 2 -4 -8 -2 -13 4 -13 6 0 8 -5 5 -10 -4 -6 -3 -10 2 -9 4
1 21 1 37 0 22 -1 27 -5 22 -17 -6 -14 -4 -15 9 -4 13 11 16 11 13 -1 -2 -9 4
-13 14 -11 12 2 16 -2 12 -12 -4 -11 1 -14 20 -12 14 2 23 -1 20 -5 -3 -5 0
-9 6 -9 6 0 15 -10 20 -22 5 -13 9 -17 9 -10 1 8 7 6 19 -5 11 -10 17 -22 14
-27 -3 -5 2 -7 11 -3 9 3 19 1 23 -5 5 -7 2 -8 -6 -3 -9 6 -11 4 -6 -4 5 -7
15 -10 23 -7 8 3 12 2 8 -3 -7 -12 5 -41 17 -41 17 0 56 -43 51 -57 -3 -7 -10
-10 -17 -6 -6 3 -7 2 -3 -3 8 -9 12 -10 40 -13 8 -1 7 -4 -3 -11 -12 -8 -11
-10 8 -10 12 0 22 -5 22 -11 0 -5 -4 -7 -10 -4 -6 3 -7 -1 -4 -10 4 -10 13
-14 22 -10 13 5 13 2 -2 -14 -13 -14 -14 -21 -5 -27 8 -5 10 -3 4 6 -5 9 -4
11 4 6 9 -6 9 -11 1 -21 -10 -11 -8 -13 9 -10 11 2 24 -1 27 -7 4 -7 2 -8 -4
-4 -7 4 -12 2 -12 -3 0 -6 5 -11 11 -11 8 0 7 -6 -2 -17 -12 -14 -12 -16 0 -8
11 6 13 3 9 -13 -4 -12 -3 -20 2 -17 4 3 10 -4 13 -16 5 -17 3 -18 -10 -7 -15
12 -15 11 -4 -10 6 -12 10 -26 7 -31 -3 -5 1 -14 9 -21 8 -7 12 -16 9 -21 -3
-5 0 -9 7 -9 7 0 4 -7 -7 -16 -10 -8 -12 -13 -4 -9 8 4 6 -1 -5 -11 -18 -15
-18 -16 -2 -10 13 4 17 2 14 -6 -2 -7 -10 -12 -16 -10 -7 1 -10 -2 -6 -8 3 -6
11 -7 17 -4 6 4 8 -1 3 -16 -5 -17 -4 -21 6 -15 8 5 11 5 7 0 -4 -4 -2 -15 5
-24 9 -12 4 -11 -18 3 -20 13 -26 15 -18 4 7 -8 9 -19 5 -23 -4 -5 -1 -5 6 -1
6 4 12 4 13 -1 0 -4 2 -16 4 -26 2 -9 -1 -15 -6 -11 -5 3 -7 9 -5 13 3 4 -1 8
-8 8 -7 0 -13 -6 -13 -13 0 -7 4 -11 8 -9 4 3 9 -2 12 -9 3 -8 1 -16 -5 -18
-6 -2 -12 -12 -14 -21 -1 -9 2 -15 7 -11 5 3 6 11 3 17 -4 7 -3 9 1 4 5 -4 9
-18 10 -31 0 -17 -4 -22 -15 -18 -13 5 -13 3 -2 -10 8 -10 9 -19 3 -22 -13 -8
-7 -36 10 -47 11 -7 11 -9 -4 -9 -10 0 -15 -5 -12 -10 4 -6 10 -8 15 -5 4 3 6
-5 2 -17 -4 -16 -2 -19 8 -13 9 6 11 4 5 -5 -6 -10 -11 -9 -22 6 -13 18 -14
17 -9 -10 5 -30 16 -48 16 -27 0 7 5 9 12 5 7 -4 8 -3 4 4 -11 19 5 14 21 -6
8 -9 12 -11 8 -4 -3 6 -3 18 2 25 11 18 15 49 5 43 -5 -3 -9 1 -9 9 0 8 4 12
8 10 4 -3 10 2 13 11 3 8 2 12 -4 9 -6 -3 -10 -2 -10 3 0 6 7 13 16 16 9 4 12
11 7 18 -15 26 -12 44 4 23 14 -18 15 -18 9 -2 -3 10 -6 23 -6 29 0 6 -8 7
-17 4 -15 -5 -14 -3 2 10 11 8 19 20 17 25 -1 6 2 8 8 4 6 -3 8 -11 5 -16 -3
-5 1 -6 10 -2 12 4 13 8 5 13 -7 5 -9 13 -5 20 5 8 4 11 -2 7 -5 -3 -10 0 -10
7 0 8 6 12 14 9 7 -3 13 0 13 6 0 6 -5 11 -12 11 -6 0 -3 7 8 15 19 15 19 15
-1 9 -16 -6 -18 -5 -7 7 14 16 16 33 2 24 -6 -3 -7 1 -4 9 3 9 10 14 14 11 5
-3 5 7 1 23 -5 17 -4 36 2 48 9 16 8 17 -4 7 -12 -10 -15 -8 -15 7 0 10 4 16
8 14 4 -3 8 0 8 5 0 6 -6 11 -12 11 -8 0 -9 3 -3 8 16 12 16 32 0 25 -13 -4
-14 -1 -6 20 8 21 7 25 -4 20 -11 -4 -15 3 -16 28 -1 19 -1 37 0 42 0 4 -5 7
-12 7 -8 0 -7 4 3 10 13 8 13 10 -2 10 -10 0 -15 5 -12 13 3 8 -7 26 -22 41
-22 21 -23 25 -8 21 14 -5 13 -3 -4 7 -18 11 -20 16 -10 27 10 11 10 12 1 7
-7 -4 -13 -2 -13 4 0 6 -13 22 -29 36 -17 14 -33 34 -36 45 -4 11 -11 16 -18
12 -7 -4 -6 1 2 10 12 15 12 17 -4 10 -15 -5 -17 -3 -12 12 6 15 5 16 -8 5 -9
-7 -15 -9 -14 -4 3 19 -1 34 -12 34 -16 0 -39 26 -31 36 4 5 0 3 -10 -4 -12
-10 -18 -10 -24 -1 -4 8 -3 9 4 5 18 -11 14 10 -5 25 -11 9 -14 10 -9 2 5 -9
2 -11 -9 -7 -8 4 -20 15 -26 25 -5 10 -19 24 -30 30 -17 9 -20 8 -14 -3 3 -7
-3 -2 -14 11 -13 14 -21 18 -21 10 -1 -8 -8 -1 -16 14 -10 18 -21 26 -30 23
-8 -3 -14 0 -14 5 0 6 -11 9 -24 7 -18 -4 -23 0 -22 15 1 15 -7 20 -33 23 -19
3 -38 9 -42 15 -4 8 -8 7 -12 -2 -4 -11 -6 -11 -6 -1 -1 7 -5 10 -11 7 -5 -3
-10 2 -10 12 0 15 -2 16 -11 3 -9 -12 -10 -11 -6 7 4 19 2 21 -13 13 -13 -7
-21 -5 -31 6 -8 10 -15 12 -23 4 -7 -7 -14 -3 -24 12 -7 13 -11 16 -9 7 3 -9
-1 -16 -8 -16 -8 0 -13 4 -12 8 1 4 -2 7 -7 7 -5 0 -12 4 -15 9 -13 18 -50 33
-56 22 -5 -6 -12 -6 -22 3 -9 7 -18 12 -20 11 -9 -7 -23 -2 -23 8 0 8 4 8 14
0 10 -8 16 -9 21 -1 8 12 9 12 -37 14 -20 1 -47 -3 -60 -10z m-18 -538 c0 -3
-4 -8 -10 -11 -5 -3 -10 -1 -10 4 0 6 5 11 10 11 6 0 10 -2 10 -4z m-100 -20
c0 -2 -7 -7 -16 -10 -8 -3 -12 -2 -9 4 6 10 25 14 25 6z m76 -341 c-1 -8 -5
-17 -8 -21 -5 -4 -4 16 1 34 3 9 9 -1 7 -13z m-72 -63 c2 -4 -4 -8 -14 -8 -10
0 -16 4 -14 8 3 4 9 8 14 8 5 0 11 -4 14 -8z m1061 -190 c-3 -3 -11 0 -18 7
-9 10 -8 11 6 5 10 -3 15 -9 12 -12z m-26 -86 c9 -11 9 -16 -1 -22 -7 -4 -10
-4 -6 1 4 4 3 14 -3 22 -6 7 -9 13 -6 13 2 0 10 -6 16 -14z m-1269 -266 c8 -5
11 -10 5 -10 -5 0 -17 5 -25 10 -8 5 -10 10 -5 10 6 0 17 -5 25 -10z m-50 -24
c0 -3 -4 -8 -10 -11 -5 -3 -10 -1 -10 4 0 6 5 11 10 11 6 0 10 -2 10 -4z
m1200 -256 c0 -5 -2 -10 -4 -10 -3 0 -8 5 -11 10 -3 6 -1 10 4 10 6 0 11 -4
11 -10z m-1870 -373 c0 -2 -10 -12 -22 -23 l-23 -19 19 23 c18 21 26 27 26 19z
m-180 -213 c0 -2 -9 0 -20 6 -11 6 -20 13 -20 16 0 2 9 0 20 -6 11 -6 20 -13
20 -16z m729 -197 c0 -9 -2 -8 -6 1 -2 6 -10 9 -15 6 -7 -4 -8 -2 -4 5 9 13
26 5 25 -12z m261 3 c0 -5 -2 -10 -4 -10 -3 0 -8 5 -11 10 -3 6 -1 10 4 10 6
0 11 -4 11 -10z"/>
<path d="M1284 1878 c0 -10 1 -18 3 -18 1 0 7 8 12 18 7 13 6 19 -2 19 -7 0
-13 -9 -13 -19z"/>
<path d="M2301 1884 c0 -11 3 -14 6 -6 3 7 2 16 -1 19 -3 4 -6 -2 -5 -13z"/>
<path d="M1287 1836 c-4 -10 -1 -13 8 -9 8 3 12 9 9 14 -7 12 -11 11 -17 -5z"/>
<path d="M2297 1499 c7 -7 15 -10 18 -7 3 3 -2 9 -12 12 -14 6 -15 5 -6 -5z"/>
<path d="M1397 1299 c7 -7 15 -10 18 -7 3 3 -2 9 -12 12 -14 6 -15 5 -6 -5z"/>
<path d="M2181 1284 c0 -11 3 -14 6 -6 3 7 2 16 -1 19 -3 4 -6 -2 -5 -13z"/>
<path d="M2157 1267 c-3 -8 1 -14 8 -14 7 0 11 6 8 14 -3 7 -6 13 -8 13 -2 0
-5 -6 -8 -13z"/>
<path d="M2187 1219 c7 -7 15 -10 18 -7 3 3 -2 9 -12 12 -14 6 -15 5 -6 -5z"/>
<path d="M763 1035 c0 -8 4 -12 9 -9 5 3 6 10 3 15 -9 13 -12 11 -12 -6z"/>
<path d="M1790 786 c0 -2 7 -7 16 -10 8 -3 12 -2 9 4 -6 10 -25 14 -25 6z"/>
<path d="M2415 729 c-4 -6 -4 -13 -1 -16 3 -4 6 -1 6 6 0 7 5 9 12 5 7 -4 8
-3 4 4 -9 15 -13 15 -21 1z"/>
<path d="M266 633 c-6 -14 -5 -15 5 -6 7 7 10 15 7 18 -3 3 -9 -2 -12 -12z"/>
<path d="M1850 459 c0 -5 5 -7 10 -4 6 3 10 8 10 11 0 2 -4 4 -10 4 -5 0 -10
-5 -10 -11z"/>
<path d="M8 283 c10 -4 10 -8 1 -19 -7 -8 -7 -14 -1 -14 12 0 23 26 15 34 -4
3 -11 6 -17 5 -6 0 -5 -3 2 -6z"/>
<path d="M10 220 c0 -5 5 -10 11 -10 5 0 7 5 4 10 -3 6 -8 10 -11 10 -2 0 -4
-4 -4 -10z"/>
<path d="M1090 142 c0 -5 7 -9 15 -9 8 0 12 4 9 9 -7 10 -24 10 -24 0z"/>
<path d="M540 56 c0 -2 8 -10 18 -17 15 -13 16 -12 3 4 -13 16 -21 21 -21 13z"/>
<path d="M1264 49 c-4 -7 -3 -9 4 -5 5 3 13 0 15 -6 4 -9 6 -10 6 -1 1 17 -16
25 -25 12z"/>
<path d="M651 27 c-8 -10 -7 -14 2 -14 8 0 14 6 14 14 0 7 -1 13 -2 13 -2 0
-8 -6 -14 -13z"/>
</g>
</svg>
